<svg xmlns="http://www.w3.org/2000/svg" xmlns:xlink="http://www.w3.org/1999/xlink" width="500" zoomAndPan="magnify" viewBox="0 0 375 374.999991" height="500" preserveAspectRatio="xMidYMid meet" version="1.2"><defs><clipPath id="81863561b2"><path d="M 24.347656 24.347656 L 350.597656 24.347656 L 350.597656 350.597656 L 24.347656 350.597656 Z M 24.347656 24.347656 "/></clipPath><clipPath id="7ad2a517a2"><path d="M 187.472656 24.347656 C 97.378906 24.347656 24.347656 97.378906 24.347656 187.472656 C 24.347656 277.5625 97.378906 350.597656 187.472656 350.597656 C 277.5625 350.597656 350.597656 277.5625 350.597656 187.472656 C 350.597656 97.378906 277.5625 24.347656 187.472656 24.347656 Z M 187.472656 24.347656 "/></clipPath><clipPath id="b8f1ede0fa"><path d="M 179.664062 115.308594 L 324.414062 115.308594 L 324.414062 253.792969 L 179.664062 253.792969 Z M 179.664062 115.308594 "/></clipPath></defs><g id="62ca8ee473"><g clip-rule="nonzero" clip-path="url(#81863561b2)"><g clip-rule="nonzero" clip-path="url(#7ad2a517a2)"><path style="fill:none;stroke-width:16;stroke-linecap:butt;stroke-linejoin:miter;stroke:#1465d0;stroke-opacity:1;stroke-miterlimit:4;" d="M 217.533761 0.00251888 C 97.391503 0.00251888 0.00251288 97.391509 0.00251288 217.533767 C 0.00251288 337.670816 97.391503 435.065015 217.533761 435.065015 C 337.67081 435.065015 435.065009 337.670816 435.065009 217.533767 C 435.065009 97.391509 337.67081 0.00251888 217.533761 0.00251888 Z M 217.533761 0.00251888 " transform="matrix(0.749892,0,0,0.749892,24.345772,24.345767)"/></g></g><g style="fill:#1465d0;fill-opacity:1;"><g transform="translate(68.792858, 232.012302)"><path style="stroke:none" d="M 93.464844 12.292969 L 73.296875 12.292969 L 14.054688 -78.683594 L 24.359375 -85.390625 L 24.359375 -73.097656 L 23.800781 -73.097656 L 23.800781 -85.390625 L 36.058594 -86.300781 C 36.824219 -75.976562 37.207031 -66.488281 37.207031 -57.832031 L 37.207031 12.292969 L 1.695312 12.292969 L 1.695312 -114.039062 L 34.007812 -114.039062 L 93.113281 -23.417969 L 82.816406 -16.703125 L 82.816406 -28.996094 L 83.375 -28.996094 L 83.375 -16.703125 L 71.113281 -15.792969 C 71.011719 -17.152344 70.796875 -21.285156 70.46875 -28.191406 C 70.128906 -35.3125 70.007812 -40.5 70.113281 -43.746094 L 82.398438 -43.355469 L 70.105469 -43.355469 L 70.105469 -114.039062 L 105.757812 -114.039062 L 105.757812 12.292969 Z M 93.464844 -12.292969 L 93.464844 0 L 81.171875 0 L 81.171875 -101.746094 L 93.464844 -101.746094 L 93.464844 -89.453125 L 82.398438 -89.453125 L 82.398438 -101.746094 L 94.691406 -101.746094 L 94.691406 -43.160156 L 94.6875 -42.96875 C 94.601562 -40.371094 94.714844 -35.835938 95.027344 -29.363281 C 95.34375 -22.675781 95.546875 -18.757812 95.632812 -17.609375 L 96.609375 -4.410156 L 76.15625 -4.410156 L 17.054688 -95.03125 L 27.351562 -101.746094 L 27.351562 -89.453125 L 13.988281 -89.453125 L 13.988281 -101.746094 L 26.28125 -101.746094 L 26.28125 0 L 13.988281 0 L 13.988281 -12.292969 L 24.914062 -12.292969 L 24.914062 0 L 12.621094 0 L 12.621094 -57.832031 C 12.621094 -65.878906 12.261719 -74.765625 11.542969 -84.484375 L 10.5625 -97.683594 L 31.023438 -97.683594 L 90.265625 -6.707031 L 79.964844 0 L 79.964844 -12.292969 Z M 93.464844 -12.292969 "/></g></g><g style="fill:#ffffff;fill-opacity:1;"><g transform="translate(68.792858, 232.012302)"><path style="stroke:none" d="M 93.46875 0 L 79.96875 0 L 24.359375 -85.390625 L 23.796875 -85.390625 C 24.546875 -75.367188 24.921875 -66.179688 24.921875 -57.828125 L 24.921875 0 L 13.984375 0 L 13.984375 -101.75 L 27.34375 -101.75 L 82.8125 -16.703125 L 83.375 -16.703125 C 83.28125 -17.953125 83.070312 -21.972656 82.75 -28.765625 C 82.425781 -35.566406 82.3125 -40.429688 82.40625 -43.359375 L 82.40625 -101.75 L 93.46875 -101.75 Z M 93.46875 0 "/></g></g><g clip-rule="nonzero" clip-path="url(#b8f1ede0fa)"><path style=" stroke:none;fill-rule:nonzero;fill:#1465d0;fill-opacity:1;" d="M 152.546875 84.339844 C 152.820312 84.34375 153.101562 84.367188 153.371094 84.414062 C 153.375 84.414062 153.378906 84.414062 153.382812 84.414062 L 180.46875 89.039062 C 182.191406 89.335938 183.636719 90.515625 184.273438 92.144531 C 184.273438 92.148438 184.273438 92.152344 184.273438 92.160156 L 196.839844 124.386719 L 319.496094 127.445312 C 320.90625 127.480469 322.230469 128.117188 323.148438 129.179688 C 324.066406 130.242188 324.507812 131.652344 324.335938 133.058594 L 317.566406 189.066406 C 317.285156 191.417969 315.34375 193.28125 312.984375 193.464844 L 225.542969 200.417969 L 208.210938 214.054688 C 208.191406 214.070312 208.171875 214.082031 208.148438 214.097656 C 208.132812 214.109375 208.109375 214.117188 208.089844 214.128906 C 208.066406 214.144531 208.050781 214.160156 208.027344 214.175781 C 204.863281 216.535156 204.082031 219.75 204.527344 221.539062 C 204.78125 222.558594 205.171875 223.304688 206.09375 223.882812 C 207.019531 224.457031 208.613281 224.875 211.34375 224.71875 C 211.355469 224.71875 211.367188 224.71875 211.375 224.71875 C 211.464844 224.714844 211.5625 224.71875 211.648438 224.71875 C 211.664062 224.71875 211.679688 224.71875 211.695312 224.71875 L 315.984375 225.023438 L 316 225.023438 C 318.742188 225.003906 321.046875 227.304688 321.039062 230.042969 C 321.027344 232.785156 318.710938 235.074219 315.96875 235.035156 L 315.957031 235.035156 L 308.332031 235.019531 C 311.164062 236.824219 313.0625 239.984375 313.0625 243.570312 C 313.0625 249.148438 308.496094 253.71875 302.914062 253.71875 C 297.335938 253.71875 292.765625 249.148438 292.765625 243.570312 C 292.765625 239.964844 294.671875 236.773438 297.527344 234.972656 L 211.648438 234.730469 C 214.742188 236.476562 216.851562 239.785156 216.851562 243.570312 C 216.851562 249.148438 212.28125 253.71875 206.703125 253.71875 C 201.125 253.71875 196.554688 249.148438 196.554688 243.570312 C 196.554688 238.726562 199.996094 234.640625 204.558594 233.652344 C 200.246094 232.125 196.933594 228.980469 194.878906 224.171875 C 194.851562 224.113281 194.824219 224.050781 194.804688 223.988281 C 193.230469 217.699219 196.019531 210.863281 201.773438 206.414062 C 201.789062 206.398438 201.804688 206.382812 201.820312 206.367188 C 201.832031 206.359375 201.835938 206.332031 201.851562 206.324219 C 201.898438 206.261719 201.957031 206.207031 202.015625 206.15625 L 214.296875 196.523438 L 175.996094 98.425781 L 151.699219 94.289062 C 151.695312 94.289062 151.6875 94.289062 151.683594 94.289062 C 149.128906 93.878906 147.265625 91.5 147.484375 88.917969 C 147.703125 86.332031 149.957031 84.300781 152.550781 84.335938 Z M 200.539062 132.117188 L 207.597656 150.222656 L 216.804688 150.222656 L 216.804688 132.527344 Z M 220.320312 132.617188 L 220.320312 150.222656 L 237.316406 150.222656 L 237.316406 133.042969 Z M 240.828125 133.121094 L 240.828125 150.222656 L 257.824219 150.222656 L 257.824219 133.546875 Z M 261.339844 133.636719 L 261.339844 150.222656 L 278.335938 150.222656 L 278.335938 134.0625 Z M 281.851562 134.15625 L 281.851562 150.222656 L 298.847656 150.222656 L 298.847656 134.582031 Z M 302.363281 134.65625 L 302.363281 150.222656 L 314.824219 150.222656 L 316.664062 135.023438 Z M 314.398438 153.722656 L 302.363281 153.722656 L 302.363281 169.625 L 312.480469 169.625 Z M 298.847656 153.722656 L 281.851562 153.722656 L 281.851562 169.625 L 298.847656 169.625 Z M 278.335938 153.722656 L 261.339844 153.722656 L 261.339844 169.625 L 278.335938 169.625 Z M 257.824219 153.722656 L 240.828125 153.722656 L 240.828125 169.625 L 257.824219 169.625 Z M 237.316406 153.722656 L 220.320312 153.722656 L 220.320312 169.625 L 237.316406 169.625 Z M 216.804688 153.722656 L 208.953125 153.722656 L 215.160156 169.625 L 216.804688 169.625 Z M 312.050781 173.121094 L 302.359375 173.121094 L 302.359375 184.535156 L 310.757812 183.867188 Z M 298.84375 173.121094 L 281.847656 173.121094 L 281.847656 186.164062 L 298.84375 184.808594 Z M 278.335938 173.121094 L 261.339844 173.121094 L 261.339844 187.789062 L 278.335938 186.453125 Z M 257.824219 173.121094 L 240.828125 173.121094 L 240.828125 189.433594 L 257.824219 188.078125 Z M 237.3125 173.121094 L 220.316406 173.121094 L 220.316406 182.800781 L 223.542969 191.0625 C 223.960938 190.859375 224.417969 190.734375 224.882812 190.695312 L 237.3125 189.707031 Z M 216.800781 173.121094 L 216.542969 173.121094 L 216.800781 173.839844 Z M 302.90625 237.609375 C 299.589844 237.609375 296.941406 240.257812 296.941406 243.574219 C 296.941406 246.890625 299.589844 249.523438 302.90625 249.523438 C 306.222656 249.523438 308.871094 246.890625 308.871094 243.574219 C 308.871094 240.257812 306.222656 237.609375 302.90625 237.609375 Z M 206.699219 237.609375 C 203.382812 237.609375 200.734375 240.257812 200.734375 243.574219 C 200.734375 246.890625 203.382812 249.523438 206.699219 249.523438 C 210.015625 249.523438 212.664062 246.890625 212.664062 243.574219 C 212.664062 240.257812 210.015625 237.609375 206.699219 237.609375 Z M 302.90625 240.4375 C 304.707031 240.4375 306.148438 241.878906 306.148438 243.679688 C 306.148438 245.480469 304.707031 246.90625 302.90625 246.90625 C 301.105469 246.90625 299.664062 245.480469 299.664062 243.679688 C 299.664062 241.878906 301.105469 240.4375 302.90625 240.4375 Z M 206.699219 240.4375 C 208.5 240.4375 209.9375 241.878906 209.9375 243.679688 C 209.9375 245.480469 208.5 246.90625 206.699219 246.90625 C 204.898438 246.90625 203.457031 245.480469 203.457031 243.679688 C 203.457031 241.878906 204.898438 240.4375 206.699219 240.4375 Z M 206.699219 240.4375 "/></g></g></svg>
